<svg xmlns="http://www.w3.org/2000/svg" aria-hidden="true" style="position:absolute;width:0;height:0;overflow:hidden">
  <defs>
    <symbol id="icon-fuel-pump" viewBox="0 0 32 32">
      <path d="M6 5a.997.997 0 0 1 1-1h10a.997.997 0 0 1 1 1v10a.997.997 0 0 1-1 1H7a.997.997 0 0 1-1-1V5z"/>
      <path d="M2 4a4.003 4.003 0 0 1 4-4h12a4.003 4.003 0 0 1 4 4v16a4.003 4.003 0 0 1 4 4v1a.997.997 0 0 0 1 1 .997.997 0 0 0 1-1v-9h-1a.997.997 0 0 1-1-1V8.75a.997.997 0 0 1 1-1h2.99c-.022-.952-.106-1.788-.402-2.444a1.944 1.944 0 0 0-.788-.916C28.432 4.17 27.872 4 27 4a.997.997 0 0 1-1-1 .997.997 0 0 1 1-1c1.128-.003 2.069.221 2.824.672.766.456 1.268 1.102 1.588 1.814.59 1.31.588 2.93.588 4.162v6.35c0 .132-.025.262-.076.383s-.124.232-.217.325a.991.991 0 0 1-.708.293h-1v9a3.004 3.004 0 0 1-3 3 2.998 2.998 0 0 1-3-3v-1a2 2 0 0 0-2-2v8h1a.997.997 0 0 1 1 1 .997.997 0 0 1-1 1h-22a.997.997 0 0 1-1-1 .997.997 0 0 1 1-1h1v-26zm18 0a2 2 0 0 0-2-2H6a2 2 0 0 0-2 2v26h16V4z"/>
    </symbol>
    <symbol id="icon-people" viewBox="0 0 32 32">
      <path d="M30 28s2 0 2-2-2-8-10-8-10 6-10 8 2 2 2 2h16zm-15.956-2L14 25.992c.002-.528.334-2.06 1.52-3.44C16.624 21.258 18.564 20 22 20c3.434 0 5.374 1.26 6.48 2.552 1.186 1.38 1.516 2.914 1.52 3.44l-.016.004-.028.004H14.044zM22 14a4.003 4.003 0 0 0 4-4 4.001 4.001 0 0 0-6.828-2.828 4.001 4.001 0 0 0 0 5.656A4.001 4.001 0 0 0 22 14zm6-4a5.99 5.99 0 0 1-1.757 4.243A6.01 6.01 0 0 1 22 16.001a5.99 5.99 0 0 1-4.243-1.758A5.99 5.99 0 0 1 16 10a5.996 5.996 0 0 1 6-6 6.002 6.002 0 0 1 6 6zm-14.128 8.56c-.8-.25-1.625-.416-2.46-.494A13.873 13.873 0 0 0 10 18c-8 0-10 6-10 8 0 1.333.667 2 2 2h8.432A4.487 4.487 0 0 1 10 26c0-2.02.754-4.084 2.18-5.808a10.583 10.583 0 0 1 1.692-1.632zM9.84 20A11.003 11.003 0 0 0 8 26H2c0-.52.328-2.06 1.52-3.448 1.09-1.272 2.984-2.512 6.32-2.55V20zM3 11a5.996 5.996 0 0 1 6-6 5.996 5.996 0 0 1 6 6 5.996 5.996 0 0 1-6 6 5.996 5.996 0 0 1-6-6zm6-4a4.003 4.003 0 0 0-4 4 4.003 4.003 0 0 0 4 4 4.003 4.003 0 0 0 4-4 4.003 4.003 0 0 0-4-4z"/>
    </symbol>
    <symbol id="icon-Property-1pressed" viewBox="0 0 32 32">
      <path fill="#e44848" d="m16 13.139-1.788-3.578c-.444-.886-1.214-2.16-2.304-3.19C10.836 5.357 9.552 4.667 8 4.667c-3.352 0-6 2.652-6 5.84 0 2.422 1.108 4.132 3.736 6.74.674.668 1.442 1.39 2.292 2.186C10.244 21.513 13 24.101 16 27.561c3-3.46 5.756-6.048 7.972-8.128.85-.796 1.62-1.52 2.292-2.186C28.892 14.639 30 12.929 30 10.507c0-3.188-2.648-5.84-6-5.84-1.554 0-2.836.69-3.908 1.704-1.09 1.03-1.86 2.304-2.304 3.19L16 13.139zm.784 16.584a1.022 1.022 0 0 1-1.216.269 1.04 1.04 0 0 1-.352-.269c-3.202-3.804-6.1-6.524-8.486-8.762C2.6 17.083 0 14.645 0 10.507c0-4.33 3.58-7.84 8-7.84 3.2 0 5.438 2.1 6.808 4.016.52.73.916 1.432 1.192 1.984.346-.691.745-1.354 1.192-1.984C18.562 4.765 20.8 2.667 24 2.667c4.42 0 8 3.51 8 7.84 0 4.138-2.6 6.576-6.73 10.454-2.386 2.24-5.284 4.962-8.486 8.762z" style="fill:var(--color1, #e44848)"/>
    </symbol>
    <symbol id="icon-Property-1Default" viewBox="0 0 32 32">
      <path d="m16 13.139-1.788-3.578c-.444-.886-1.214-2.16-2.304-3.19C10.836 5.357 9.552 4.667 8 4.667c-3.352 0-6 2.652-6 5.84 0 2.422 1.108 4.132 3.736 6.74.674.668 1.442 1.39 2.292 2.186C10.244 21.513 13 24.101 16 27.561c3-3.46 5.756-6.048 7.972-8.128.85-.796 1.62-1.52 2.292-2.186C28.892 14.639 30 12.929 30 10.507c0-3.188-2.648-5.84-6-5.84-1.554 0-2.836.69-3.908 1.704-1.09 1.03-1.86 2.304-2.304 3.19L16 13.139zm.784 16.584a1.022 1.022 0 0 1-1.216.269 1.04 1.04 0 0 1-.352-.269c-3.202-3.804-6.1-6.524-8.486-8.762C2.6 17.083 0 14.645 0 10.507c0-4.33 3.58-7.84 8-7.84 3.2 0 5.438 2.1 6.808 4.016.52.73.916 1.432 1.192 1.984.346-.691.745-1.354 1.192-1.984C18.562 4.765 20.8 2.667 24 2.667c4.42 0 8 3.51 8 7.84 0 4.138-2.6 6.576-6.73 10.454-2.386 2.24-5.284 4.962-8.486 8.762z"/>
    </symbol>
    <symbol id="icon-bi_grid-3x3-gap-1" viewBox="0 0 32 32">
      <path d="M8 4v4H4V4h4zm2 24v-4a2 2 0 0 0-2-2H4a2 2 0 0 0-2 2v4a2 2 0 0 0 2 2h4a2 2 0 0 0 2-2zm0-10v-4a2 2 0 0 0-2-2H4a2 2 0 0 0-2 2v4a2 2 0 0 0 2 2h4a2 2 0 0 0 2-2zm0-10V4a2 2 0 0 0-2-2H4a2 2 0 0 0-2 2v4a2 2 0 0 0 2 2h4a2 2 0 0 0 2-2zm10 20v-4a2 2 0 0 0-2-2h-4a2 2 0 0 0-2 2v4a2 2 0 0 0 2 2h4a2 2 0 0 0 2-2zm0-10v-4a2 2 0 0 0-2-2h-4a2 2 0 0 0-2 2v4a2 2 0 0 0 2 2h4a2 2 0 0 0 2-2zm0-10V4a2 2 0 0 0-2-2h-4a2 2 0 0 0-2 2v4a2 2 0 0 0 2 2h4a2 2 0 0 0 2-2zm-2-4v4h-4V4h4zm10 0v4h-4V4h4zM8 14v4H4v-4h4zm10 0v4h-4v-4h4zm10 0h-4v4h4v-4zM8 24v4H4v-4h4zm10 0v4h-4v-4h4zm10 0v4h-4v-4h4zM24 2a2 2 0 0 0-2 2v4a2 2 0 0 0 2 2h4a2 2 0 0 0 2-2V4a2 2 0 0 0-2-2h-4zm-2 12a2 2 0 0 1 2-2h4a2 2 0 0 1 2 2v4a2 2 0 0 1-2 2h-4a2 2 0 0 1-2-2v-4zm2 8a2 2 0 0 0-2 2v4a2 2 0 0 0 2 2h4a2 2 0 0 0 2-2v-4a2 2 0 0 0-2-2h-4z"/>
    </symbol>
    <symbol id="icon-bi_grid" viewBox="0 0 32 32">
      <path d="M2 5a3.004 3.004 0 0 1 3-3h6a3.004 3.004 0 0 1 3 3v6a3.004 3.004 0 0 1-3 3H5a3.004 3.004 0 0 1-3-3V5zm3-1a.997.997 0 0 0-1 1v6a.997.997 0 0 0 1 1h6a.997.997 0 0 0 1-1V5a.997.997 0 0 0-1-1H5zm13 1a3.004 3.004 0 0 1 3-3h6a3.004 3.004 0 0 1 3 3v6a3.004 3.004 0 0 1-3 3h-6a3.004 3.004 0 0 1-3-3V5zm3-1a.997.997 0 0 0-1 1v6a.997.997 0 0 0 1 1h6a.997.997 0 0 0 1-1V5a.997.997 0 0 0-1-1h-6zM2 21a3.004 3.004 0 0 1 3-3h6a3.004 3.004 0 0 1 3 3v6a3.004 3.004 0 0 1-3 3H5a3.004 3.004 0 0 1-3-3v-6zm3-1a.997.997 0 0 0-1 1v6a.997.997 0 0 0 1 1h6a.997.997 0 0 0 1-1v-6a.997.997 0 0 0-1-1H5zm13 1a3.004 3.004 0 0 1 3-3h6a3.004 3.004 0 0 1 3 3v6a3.004 3.004 0 0 1-3 3h-6a3.004 3.004 0 0 1-3-3v-6zm3-1a.997.997 0 0 0-1 1v6a.997.997 0 0 0 1 1h6a.997.997 0 0 0 1-1v-6a.997.997 0 0 0-1-1h-6z"/>
    </symbol>
    <symbol id="icon-bi_droplet" viewBox="0 0 32 32">
      <path d="M14.42 1.6C15.38.59 16 0 16 0c.219.725.466 1.417.742 2.076 1.624 3.892 4.146 6.7 6.394 9.2C25.756 14.192 28 16.69 28 20a12.003 12.003 0 0 1-12 12A11.998 11.998 0 0 1 4 20c0-6.664 7.16-14.966 10.42-18.4zm.826 2.042a62.033 62.033 0 0 0-3.658 4.338c-1.452 1.9-2.872 4.016-3.92 6.14C6.608 16.266 6 18.276 6 20a10.001 10.001 0 0 0 20 0c0-2.402-1.592-4.314-4.362-7.4l-.06-.064C19.5 10.22 17 7.442 15.246 3.642z"/>
      <path d="M9.106 15.552c1.64-3.282 3.434-5.506 4.186-6.26l1.416 1.416c-.58.58-2.256 2.622-3.814 5.74l-1.788-.896z"/>
    </symbol>
    <symbol id="icon-cup-hot" viewBox="0 0 32 32">
      <path d="M1 12a1.007 1.007 0 0 0-.779.374.997.997 0 0 0-.197.842l3.304 14.868A4.998 4.998 0 0 0 8.208 32h11.584a4.996 4.996 0 0 0 4.88-3.916l.262-1.18a6 6 0 0 0 2.601-11.708l.442-1.98A1.003 1.003 0 0 0 27.001 12h-26zm25 13a4.05 4.05 0 0 1-.632-.05l1.734-7.796A4.002 4.002 0 0 1 26 25zM5.28 27.65 2.246 14h23.508L22.72 27.65A2.995 2.995 0 0 1 19.792 30H8.208a2.998 2.998 0 0 1-2.928-2.35zM8.8 1.6l-.006.008-.028.038c-.146.2-.282.407-.408.62a4.003 4.003 0 0 0-.282.534c-.052.12-.068.184-.074.206v.008c.023.177.085.346.182.496.15.266.356.544.616.89l.02.024c.236.316.52.694.74 1.086.224.4.44.91.44 1.49 0 .376-.13.736-.238.988a6.142 6.142 0 0 1-.404.776 10.2 10.2 0 0 1-.506.764l-.036.05-.01.016-.004.004a1.004 1.004 0 0 1-1.4.202A1 1 0 0 1 7.2 8.4l.006-.008.028-.038c.146-.2.282-.407.408-.62.107-.171.202-.349.282-.534.052-.12.068-.184.074-.206a1.199 1.199 0 0 0-.18-.504A8.024 8.024 0 0 0 7.2 5.6l-.02-.024c-.27-.345-.517-.708-.74-1.086A3.066 3.066 0 0 1 6 3c0-.376.13-.736.238-.988.118-.276.268-.548.404-.776.159-.261.328-.516.506-.764l.05-.07A1.004 1.004 0 0 1 8.598.2 1.004 1.004 0 0 1 8.8 1.6zm6 0-.006.008-.028.038c-.146.2-.282.407-.408.62a4.003 4.003 0 0 0-.282.534c-.052.12-.068.184-.074.206v.008c.023.177.085.346.182.496.15.266.356.544.616.89l.02.024c.236.316.52.694.74 1.086.224.4.44.91.44 1.49 0 .376-.13.736-.238.988a6.142 6.142 0 0 1-.404.776 10.2 10.2 0 0 1-.506.764l-.036.05-.01.016-.004.004a1.004 1.004 0 0 1-1.4.202 1 1 0 0 1-.202-1.4l.006-.008.028-.038c.146-.2.282-.407.408-.62.107-.171.202-.349.282-.534.052-.12.068-.184.074-.206a1.199 1.199 0 0 0-.18-.504 8.024 8.024 0 0 0-.618-.89l-.02-.024c-.27-.345-.517-.708-.74-1.086A3.066 3.066 0 0 1 12 3c0-.376.13-.736.238-.988.118-.276.268-.548.404-.776.159-.261.328-.516.506-.764l.05-.07a1.004 1.004 0 0 1 1.4-.202 1 1 0 0 1 .202 1.4zm6 0-.006.008-.028.038c-.145.2-.282.407-.408.62a4.003 4.003 0 0 0-.282.534c-.052.12-.068.184-.074.206v.008c.023.177.085.346.182.496.15.266.356.544.616.89l.02.024c.236.316.52.694.74 1.086.224.4.44.91.44 1.49 0 .376-.13.736-.238.988a6.142 6.142 0 0 1-.404.776 9.875 9.875 0 0 1-.504.764l-.038.05-.01.016-.004.004a1.004 1.004 0 0 1-1.4.202 1 1 0 0 1-.202-1.4l.006-.008.028-.038c.145-.2.282-.407.408-.62.107-.171.202-.349.282-.534.052-.12.068-.184.074-.206a1.199 1.199 0 0 0-.18-.504 8.024 8.024 0 0 0-.618-.89l-.02-.024c-.27-.345-.517-.708-.74-1.086A3.066 3.066 0 0 1 18 3c0-.376.13-.736.238-.988.118-.276.268-.548.404-.776.159-.261.328-.516.506-.764l.05-.07a1.004 1.004 0 0 1 1.4-.202 1 1 0 0 1 .202 1.4z"/>
    </symbol>
    <symbol id="icon-diagram" viewBox="0 0 32 32">
      <path d="M12 7a3.004 3.004 0 0 1 3-3h2a3.004 3.004 0 0 1 3 3v2a3.004 3.004 0 0 1-3 3v2h11a.997.997 0 0 1 1 1v2a.997.997 0 0 1-1 1 .997.997 0 0 1-1-1v-1H17v1a.997.997 0 0 1-1 1 .997.997 0 0 1-1-1v-1H5v1a.997.997 0 0 1-1 1 .997.997 0 0 1-1-1v-2a.997.997 0 0 1 1-1h11v-2a3.004 3.004 0 0 1-3-3V7zm5 3a.997.997 0 0 0 1-1V7a.997.997 0 0 0-1-1h-2a.997.997 0 0 0-1 1v2a.997.997 0 0 0 1 1h2zM0 23a3.004 3.004 0 0 1 3-3h2a3.004 3.004 0 0 1 3 3v2a3.004 3.004 0 0 1-3 3H3a3.004 3.004 0 0 1-3-3v-2zm3-1a.997.997 0 0 0-1 1v2a.997.997 0 0 0 1 1h2a.997.997 0 0 0 1-1v-2a.997.997 0 0 0-1-1H3zm9 1a3.004 3.004 0 0 1 3-3h2a3.004 3.004 0 0 1 3 3v2a3.004 3.004 0 0 1-3 3h-2a3.004 3.004 0 0 1-3-3v-2zm3-1a.997.997 0 0 0-1 1v2a.997.997 0 0 0 1 1h2a.997.997 0 0 0 1-1v-2a.997.997 0 0 0-1-1h-2zm9 1a3.004 3.004 0 0 1 3-3h2a3.004 3.004 0 0 1 3 3v2a3.004 3.004 0 0 1-3 3h-2a3.004 3.004 0 0 1-3-3v-2zm3-1a.997.997 0 0 0-1 1v2a.997.997 0 0 0 1 1h2a.997.997 0 0 0 1-1v-2a.997.997 0 0 0-1-1h-2z"/>
    </symbol>
    <symbol id="icon-wind" viewBox="0 0 32 32">
      <path d="M25 4a5 5 0 0 0-5 5 .997.997 0 0 1-1 1 .997.997 0 0 1-1-1 6.994 6.994 0 0 1 4.322-6.467 6.998 6.998 0 0 1 9.544 5.102 7.006 7.006 0 0 1-2.976 7.186 6.994 6.994 0 0 1-3.889 1.18h-24a.997.997 0 0 1-1-1 .997.997 0 0 1 1-1h24a5 5 0 0 0 0-10zM11 6a2 2 0 0 0-2 2 .997.997 0 0 1-1 1 .997.997 0 0 1-1-1 4.004 4.004 0 0 1 2.469-3.695A4 4 0 1 1 11 12H1a.997.997 0 0 1-1-1 .997.997 0 0 1 1-1h10a2 2 0 0 0 0-4zM0 19a.997.997 0 0 1 1-1h20.084a5.998 5.998 0 0 1 4.242 10.243 5.996 5.996 0 0 1-6.539 1.301 5.999 5.999 0 0 1-3.704-5.543.997.997 0 0 1 1-1 .997.997 0 0 1 1 1 4.004 4.004 0 0 0 2.469 3.695 4 4 0 1 0 1.531-7.695H.999a.997.997 0 0 1-1-1z"/>
    </symbol>
    <symbol id="icon-tv" viewBox="0 0 32 32">
      <path d="M0 8s0-4 4-4h24s4 0 4 4v12s0 4-4 4h-8c0 1.333.167 2.333.5 3H22a.997.997 0 0 1 1 1 .997.997 0 0 1-1 1H10a.997.997 0 0 1-1-1 .997.997 0 0 1 1-1h1.5c.333-.667.5-1.667.5-3H4s-4 0-4-4V8zm2.796-1.71c-.22.153-.395.361-.508.604A3.013 3.013 0 0 0 2 8.02V20c0 .65.156 1.004.29 1.204.14.208.341.377.604.508.338.162.703.259 1.076.286l.05.002H28c.65 0 1.004-.156 1.204-.29.22-.153.395-.361.508-.604.162-.338.259-.703.286-1.076l.002-.05V8c0-.65-.156-1.004-.29-1.204a1.511 1.511 0 0 0-.604-.508A3.018 3.018 0 0 0 27.98 6H4c-.65 0-1.004.156-1.204.29z"/>
    </symbol>
    <symbol id="icon-car" viewBox="0 0 32 32">
      <path fill="#c0392c" d="M.64 10.4h30.72v16.32H.64z" style="fill:var(--color2, #c0392c)"/>
      <path fill="#2c3e50" d="M24 27.68h1.28a.64.64 0 0 1 .64.64v1.28a.64.64 0 0 1-.64.64H24a.64.64 0 0 1-.64-.64v-1.28a.64.64 0 0 1 .64-.64z" style="fill:var(--color3, #2c3e50)"/>
      <path fill="#23475f" d="M29.76 28.64v2.56a.64.64 0 0 1-.64.64h-3.84a.64.64 0 0 1-.64-.64v-2.56c.006-.001 5.118.007 5.12 0z" style="fill:var(--color4, #23475f)"/>
      <path fill="#1d3d51" d="M25.573 31.84h.64v-3.2h-.64v3.2zm1.334 0h.587v-3.2h-.587v3.2zm1.28-3.2v3.2h.587v-3.2h-.587z" style="fill:var(--color5, #1d3d51)"/>
      <path fill="#2c3e50" d="M6.72 27.68H8a.64.64 0 0 1 .64.64v1.28a.64.64 0 0 1-.64.64H6.72a.64.64 0 0 1-.64-.64v-1.28a.64.64 0 0 1 .64-.64z" style="fill:var(--color3, #2c3e50)"/>
      <path fill="#23475f" d="M7.36 28.64v2.56a.64.64 0 0 1-.64.64H2.88a.64.64 0 0 1-.64-.64v-2.56c.006-.001 5.118.007 5.12 0z" style="fill:var(--color4, #23475f)"/>
      <path fill="#1d3d51" d="M3.173 31.84h.64v-3.2h-.64v3.2zm1.334 0h.587v-3.2h-.587v3.2zm1.28-3.2v3.2h.587v-3.2h-.587z" style="fill:var(--color5, #1d3d51)"/>
      <path fill="#ebeeef" d="M28.16.16H3.84a3.2 3.2 0 0 0-3.2 3.2v7.04s7.009 2.529 10.833 6.354C15.328 20.609 16 24.48 16 24.48s.658-3.857 4.506-7.706C24.338 12.943 31.36 10.4 31.36 10.4V3.36a3.2 3.2 0 0 0-3.2-3.2z" style="fill:var(--color6, #ebeeef)"/>
      <path fill="#fff" d="M18.56 9.44c-.706 0-1.28-.574-1.28-1.28V4.64c0-.706.574-1.28 1.28-1.28h8.32c.706 0 1.28.574 1.28 1.28v3.52c0 .706-.574 1.28-1.28 1.28h-8.32z" style="fill:var(--color7, #fff)"/>
      <path fill="#ebeeef" d="M18.56 9.44h1.28l6.08-6.08h-7.36c-.706 0-1.28.574-1.28 1.28v3.52c0 .706.574 1.28 1.28 1.28z" style="fill:var(--color6, #ebeeef)"/>
      <path fill="#e5e5e5" d="M27.84 3.68H17.6v1.6h5.44v3.84h2.24V5.28h2.56z" style="fill:var(--color8, #e5e5e5)"/>
      <path fill="#fff" d="M5.12 9.44c-.706 0-1.28-.574-1.28-1.28V4.64c0-.706.574-1.28 1.28-1.28h8.32c.706 0 1.28.574 1.28 1.28v3.52c0 .706-.574 1.28-1.28 1.28H5.12z" style="fill:var(--color7, #fff)"/>
      <path fill="#e5e5e5" d="M14.4 3.68H4.16v1.6h2.56v3.84h2.24V5.28h5.44z" style="fill:var(--color8, #e5e5e5)"/>
      <path fill="#d4d7da" d="M.64 26.72h30.72a.64.64 0 0 1 .64.64V28a.64.64 0 0 1-.64.64H.64A.64.64 0 0 1 0 28v-.64a.64.64 0 0 1 .64-.64z" style="fill:var(--color9, #d4d7da)"/>
      <path fill="#fff" d="M25.28 18.08a2.88 2.88 0 1 1 .001 5.759 2.88 2.88 0 0 1-.001-5.759z" style="fill:var(--color7, #fff)"/>
      <path fill="#f39c12" d="M25.28 19.04a1.92 1.92 0 1 1-.001 3.841 1.92 1.92 0 0 1 .001-3.841z" style="fill:var(--color10, #f39c12)"/>
      <path fill="#fff" d="M6.72 18.08a2.88 2.88 0 1 1 .001 5.759 2.88 2.88 0 0 1-.001-5.759z" style="fill:var(--color7, #fff)"/>
      <path fill="#f39c12" d="M6.72 19.04a1.92 1.92 0 1 1-.001 3.841 1.92 1.92 0 0 1 .001-3.841z" style="fill:var(--color10, #f39c12)"/>
      <path fill="#c8cbcb" d="M16.956 12.316C16.264 11.624 15.04 12 15.04 12l-4.179 4.178c.211.189.416.38.612.576a18.624 18.624 0 0 1 2.603 3.25l4.484-4.484s.228-1.052-.314-1.594c-.398-.397-.865-1.184-1.291-1.611z" style="fill:var(--color11, #c8cbcb)"/>
      <path fill="#fff" d="M16 11.68a2.88 2.88 0 1 0-.001 5.759A2.88 2.88 0 0 0 16 11.68zm0 .96c.496 0 .948.19 1.288.5L16 14.428l-1.288-1.288c.338-.31.79-.499 1.287-.499H16zm0 3.84a1.92 1.92 0 0 1-1.683-2.845l-.005.01L16 15.333l1.688-1.688A1.921 1.921 0 0 1 16 16.481z" style="fill:var(--color7, #fff)"/>
      <path fill="#d3d6d7" d="m23.04 6.24 2.56-2.56h-7.877a1.152 1.152 0 0 0-.121.121l-.001.001V5.28h5.44v.96z" style="fill:var(--color12, #d3d6d7)"/>
      <path fill="#bdc3c7" d="M26.88 3.68c.529 0 .96.431.96.96v3.52c0 .529-.431.96-.96.96h-8.32a.962.962 0 0 1-.96-.96V4.64c0-.529.431-.96.96-.96h8.32zm0-.64h-8.32a1.6 1.6 0 0 0-1.6 1.6v3.52a1.6 1.6 0 0 0 1.6 1.6h8.32a1.6 1.6 0 0 0 1.6-1.6V4.64a1.6 1.6 0 0 0-1.6-1.6z" style="fill:var(--color13, #bdc3c7)"/>
      <path fill="#ebeeef" d="M5.12 9.44H6.4l6.08-6.08H5.12c-.706 0-1.28.574-1.28 1.28v3.52c0 .706.574 1.28 1.28 1.28z" style="fill:var(--color6, #ebeeef)"/>
      <path fill="#d3d6d7" d="M8.96 6.88v-1.6h1.6l1.6-1.6H4.282a1.152 1.152 0 0 0-.121.121l-.001.001V5.28h2.56v3.84l2.24-2.24z" style="fill:var(--color12, #d3d6d7)"/>
      <path fill="#bdc3c7" d="M13.44 3.68c.529 0 .96.431.96.96v3.52c0 .529-.431.96-.96.96H5.12a.962.962 0 0 1-.96-.96V4.64c0-.529.431-.96.96-.96h8.32zm0-.64H5.12a1.6 1.6 0 0 0-1.6 1.6v3.52a1.6 1.6 0 0 0 1.6 1.6h8.32a1.6 1.6 0 0 0 1.6-1.6V4.64a1.6 1.6 0 0 0-1.6-1.6z" style="fill:var(--color13, #bdc3c7)"/>
    </symbol>
  </defs>
</svg>